<?xml version="1.0" encoding="UTF-8" standalone="no"?>
<!-- Created with Inkscape (http://www.inkscape.org/) -->

<svg
   xmlns:osb="http://www.openswatchbook.org/uri/2009/osb"
   xmlns:dc="http://purl.org/dc/elements/1.1/"
   xmlns:cc="http://creativecommons.org/ns#"
   xmlns:rdf="http://www.w3.org/1999/02/22-rdf-syntax-ns#"
   xmlns:svg="http://www.w3.org/2000/svg"
   xmlns="http://www.w3.org/2000/svg"
   xmlns:sodipodi="http://sodipodi.sourceforge.net/DTD/sodipodi-0.dtd"
   xmlns:inkscape="http://www.inkscape.org/namespaces/inkscape"
   width="210mm"
   height="297mm"
   viewBox="0 0 210 297"
   version="1.1"
   id="svg8"
   sodipodi:docname="kagero_my.svg"
   inkscape:version="0.92.1 r15371">
  <defs
     id="defs2">
    <linearGradient
       id="linearGradient4661"
       osb:paint="solid">
      <stop
         style="stop-color:#c8171e;stop-opacity:1;"
         offset="0"
         id="stop4659" />
    </linearGradient>
  </defs>
  <sodipodi:namedview
     id="base"
     pagecolor="#ffffff"
     bordercolor="#666666"
     borderopacity="1.0"
     inkscape:pageopacity="0.0"
     inkscape:pageshadow="2"
     inkscape:zoom="0.98994949"
     inkscape:cx="318.61054"
     inkscape:cy="538.16478"
     inkscape:document-units="mm"
     inkscape:current-layer="layer2"
     showgrid="false"
     inkscape:window-width="1920"
     inkscape:window-height="1017"
     inkscape:window-x="-8"
     inkscape:window-y="-8"
     inkscape:window-maximized="1" />
  <metadata
     id="metadata5">
    <rdf:RDF>
      <cc:Work
         rdf:about="">
        <dc:format>image/svg+xml</dc:format>
        <dc:type
           rdf:resource="http://purl.org/dc/dcmitype/StillImage" />
      </cc:Work>
    </rdf:RDF>
  </metadata>
  <g
     inkscape:label="Layer 1"
     inkscape:groupmode="layer"
     id="layer1">
    <path
       style="fill:#c8171e;stroke:#c8171e;stroke-width:0.26458332px;stroke-linecap:butt;stroke-linejoin:miter;stroke-opacity:1;fill-opacity:1"
       d="m 55.468006,186.15848 16.725445,13.41815 -8.220983,22.63133 z"
       id="path4517"
       inkscape:connector-curvature="0" />
    <path
       style="fill:#c8171e;stroke:#c8161e;stroke-width:0.26458332px;stroke-linecap:butt;stroke-linejoin:miter;stroke-opacity:1;fill-opacity:1"
       d="m 72.193451,199.57663 16.606848,12.89938 -8.185129,22.88495 z"
       id="path4519"
       inkscape:connector-curvature="0" />
  </g>
  <g
     inkscape:groupmode="layer"
     id="layer2"
     inkscape:label="Layer 2">
    <path
       style="fill:#c8171e;stroke:#c8171e;stroke-width:0.26458332px;stroke-linecap:butt;stroke-linejoin:miter;stroke-opacity:1;fill-opacity:1"
       d="m 38.837052,172.92931 8.220982,35.95499 8.409972,-22.72582 z"
       id="path3710"
       inkscape:connector-curvature="0" />
    <path
       style="fill:#c8171e;stroke:#c8171e;stroke-width:0.26458332px;stroke-linecap:butt;stroke-linejoin:miter;stroke-opacity:1;fill-opacity:1"
       d="m 88.800299,212.47601 17.222021,13.32272 -8.7407,23.0093 z"
       id="path4533"
       inkscape:connector-curvature="0" />
    <path
       style="fill:#c8171e;stroke:#c8171e;stroke-width:0.26458332px;stroke-linecap:butt;stroke-linejoin:miter;stroke-opacity:1;fill-opacity:1"
       d="M 106.02232,225.79873 123.03125,212.66406 115.141,248.5718 Z"
       id="path4535"
       inkscape:connector-curvature="0" />
    <path
       style="fill:#c8171e;stroke:#c8171e;stroke-width:0.26458332px;stroke-linecap:butt;stroke-linejoin:miter;stroke-opacity:1;fill-opacity:1"
       d="m 123.03125,212.66406 16.72545,-13.27641 -8.07925,36.04947 z"
       id="path4537"
       inkscape:connector-curvature="0" />
    <path
       style="fill:#c8171e;stroke:#c8171e;stroke-width:0.26458332px;stroke-linecap:butt;stroke-linejoin:miter;stroke-opacity:1;fill-opacity:1"
       d="m 139.7567,199.38765 16.86718,-13.08743 -8.26823,36.00223 z"
       id="path4539"
       inkscape:connector-curvature="0" />
    <path
       style="fill:#c8171e;stroke:#c8171e;stroke-width:0.26458332px;stroke-linecap:butt;stroke-linejoin:miter;stroke-opacity:1;fill-opacity:1"
       d="m 156.62388,186.30022 16.6782,-13.4654 -7.9375,36.19122 z"
       id="path4541"
       inkscape:connector-curvature="0" />
    <path
       style="fill:#c8171e;fill-opacity:1;stroke:#c8171e;stroke-width:1.01015258;stroke-opacity:1;opacity:1"
       d="M 276.51663,717.67872 C 207.83143,664.4846 151.6182,620.62579 151.59834,620.21467 c -0.0199,-0.41111 3.94137,-2.74002 8.80273,-5.17535 34.62092,-17.34358 65.36064,-16.84687 93.71652,1.51434 10.49443,6.79543 27.45324,23.96584 35.78568,36.23221 7.44469,10.95949 8.18371,11.67469 13.6482,13.20819 6.01936,1.68921 13.50358,-0.18855 26.30269,-6.59927 10.3569,-5.18746 28.76343,-17.86422 29.51885,-20.32991 0.35422,-1.15617 -43.85324,-23.96823 -68.33574,-35.26282 -38.59993,-17.80741 -63.74689,-27.10278 -80.86124,-29.88968 -8.01973,-1.30592 -20.79535,0.41507 -42.95643,5.78664 -29.10255,7.0541 -37.68281,6.53149 -46.66836,-2.84253 -8.00559,-8.35168 -8.34539,-18.62741 -1.02176,-30.89817 1.74086,-2.91682 3.42944,-5.3033 3.7524,-5.3033 0.32297,0 1.16127,2.14633 1.8629,4.76964 4.26505,15.94656 15.53092,18.90138 29.23884,7.66877 5.03129,-4.12276 7.63173,-9.17063 6.67927,-12.96553 -0.98864,-3.93906 -8.19699,-9.48548 -21.6331,-16.64547 -13.33413,-7.10564 -17.06274,-10.46461 -20.88578,-18.81523 -4.16736,-9.10271 -5.59277,-18.53274 -5.09591,-33.71271 0.52729,-16.10944 2.58664,-23.76065 8.96686,-33.31511 7.80208,-11.68372 19.05391,-16.56351 38.23865,-16.58369 11.95304,-0.0126 19.02229,1.65825 28.78919,6.80439 17.90204,9.43251 30.48622,32.65123 29.58865,54.59321 l -0.29407,7.18903 -2.69288,-4.58045 c -3.33602,-5.67442 -11.88337,-13.79754 -15.46361,-14.69612 -7.35409,-1.84576 -15.26348,1.90625 -18.85372,8.94369 -1.78722,3.50323 -2.03984,5.40393 -1.63334,12.2893 0.77714,13.1632 3.42308,18.60553 14.29373,29.40012 9.84246,9.7736 17.33943,14.44466 26.66553,16.61423 15.83525,3.68381 29.03169,-5.07285 34.54495,-22.92269 3.41391,-11.05295 2.14992,-24.95745 -3.89154,-42.80885 -7.20323,-21.28424 -17.19679,-35.11517 -35.80085,-49.54788 -33.05121,-25.64056 -29.19103,-80.96501 8.02227,-114.97588 6.61865,-6.04907 18.42397,-14.65094 19.13345,-13.94146 0.27081,0.27082 -1.87433,4.30312 -4.76698,8.96068 -7.35957,11.8499 -15.4246,29.04947 -18.65463,39.78303 -2.24585,7.46308 -2.75259,11.17198 -2.82927,20.70813 -0.0886,11.01128 0.0702,11.95898 3.04661,18.18275 5.55935,11.62495 19.37365,22.04998 27.7329,20.92876 7.26908,-0.97499 12.12042,-6.27167 15.00559,-16.38308 0.63411,-2.22233 1.56535,-14.95025 2.06941,-28.28427 1.02412,-27.09089 2.81801,-38.83309 8.51879,-55.7611 6.61228,-19.63461 11.19767,-28.0282 26.40286,-48.33057 8.63333,-11.52746 23.18738,-27.57394 24.14281,-26.61851 0.2985,0.2985 -1.96168,7.19796 -5.02263,15.33214 -19.26598,51.1975 -27.49275,105.83848 -19.65271,130.53033 4.60616,14.50687 12.61446,28.00525 32.25925,54.37447 16.47681,22.11682 21.49524,33.58677 19.19197,43.8644 -1.30091,5.80496 -3.62102,9.64576 -8.97082,14.85069 -3.57223,3.4755 -4.10422,3.71842 -4.10422,1.87416 0,-1.16539 -0.9409,-5.16522 -2.09091,-8.88849 -3.70336,-11.99009 -13.23509,-18.72706 -24.67192,-17.43796 -18.76283,2.11485 -21.95372,34.1644 -4.8963,49.17894 7.32355,6.44645 13.95284,8.54914 27.11345,8.59989 22.64865,0.0873 37.79037,-8.65071 43.66401,-25.19779 2.56976,-7.23945 2.30164,-26.52612 -0.51256,-36.87057 -3.80468,-13.98527 -8.3882,-25.01534 -15.604,-37.55051 -16.21675,-28.17148 -23.00177,-53.12257 -23.00177,-84.5864 0,-48.16196 21.76688,-108.14882 58.20955,-160.41838 3.59642,-5.15834 6.90835,-9.3788 7.35985,-9.3788 0.45149,0 3.76694,4.43205 7.36766,9.84899 28.60945,43.04019 47.06635,89.15268 52.83738,132.00822 1.37659,10.22255 1.63887,17.23406 1.20905,32.32077 -0.95198,33.41395 -5.93313,49.67324 -26.94614,87.95661 -8.70399,15.85771 -14.17438,35.50001 -14.17438,50.89539 0,19.9949 8.09853,32.16513 25.75889,38.70966 5.08699,1.88513 8.17109,2.2519 19.1929,2.28243 12.07579,0.0334 13.58254,-0.17492 18.73391,-2.59112 7.73265,-3.62691 12.18613,-7.82923 16.12102,-15.21182 5.48545,-10.29176 5.37761,-23.89412 -0.25506,-32.17029 -3.95577,-5.8123 -7.06344,-7.44489 -14.1338,-7.42508 -12.67421,0.0355 -20.37314,7.2302 -23.44669,21.91108 l -1.30413,6.22921 -4.4648,-4.59539 c -8.13748,-8.37546 -10.40048,-16.51731 -7.45564,-26.82391 2.29319,-8.02591 7.10303,-15.90099 22.14699,-36.26092 20.09713,-27.19872 27.23113,-40.72721 30.50792,-57.85337 4.96427,-25.94593 -5.33895,-80.72736 -24.23658,-128.86394 -1.88871,-4.81096 -3.09966,-8.74721 -2.69099,-8.74721 1.17067,0 14.26297,13.92588 20.41826,21.71828 8.33263,10.54883 18.41584,25.47569 21.83571,32.32488 11.76967,23.5718 17.38044,50.61534 17.4089,83.90967 0.0125,14.6535 1.32427,22.54916 4.81792,29.00024 2.73361,5.04764 6.72806,8.15235 11.8889,9.24071 4.19971,0.88569 13.73835,-3.97958 20.09174,-10.24795 15.31202,-15.10715 15.02415,-38.74586 -0.87066,-71.49657 -2.96604,-6.11142 -7.67432,-14.74823 -10.46283,-19.1929 -2.78852,-4.44467 -4.88371,-8.2705 -4.656,-8.50185 0.81776,-0.83081 12.0293,7.61758 19.75969,14.88976 10.16655,9.56397 16.23903,17.66874 21.70375,28.96743 6.10659,12.62577 8.4486,22.55249 8.4486,35.80977 0,12.30662 -1.56795,19.5629 -6.45007,29.85015 -4.25687,8.96978 -9.25692,14.94651 -18.80375,22.47676 -18.52187,14.60949 -29.24033,31.39553 -35.38288,55.41269 -3.51575,13.74641 -4.27217,22.70392 -2.54585,30.14765 2.92491,12.61195 8.79049,21.2228 17.28896,25.38072 4.90015,2.39742 6.39908,2.65488 12.99315,2.23169 11.81854,-0.75846 20.88926,-5.58949 32.45052,-17.28302 7.99085,-8.08225 9.48706,-10.1591 11.4198,-15.85142 2.87385,-8.46413 3.69606,-16.55687 2.23197,-21.96867 -2.35956,-8.72183 -10.57432,-14.46804 -18.5456,-12.97262 -4.59016,0.86112 -12.12988,7.55289 -17.18279,15.25032 l -3.98415,6.06932 0.64476,-9.59645 c 1.33836,-19.92007 6.75111,-33.46102 17.76678,-44.44671 11.04875,-11.01867 24.12634,-16.16244 41.09162,-16.16244 16.23814,0 25.7581,3.13915 33.78751,11.14122 14.22369,14.1753 18.31619,46.13041 9.06242,70.76129 -3.36723,8.96259 -7.43119,12.79673 -21.90095,20.66246 -14.64072,7.95866 -21.61657,13.77556 -21.61657,18.02526 0,3.96771 2.41403,8.05471 6.78812,11.49238 8.60817,6.76533 16.27558,8.45175 21.84248,4.80418 3.01338,-1.97444 7.0381,-9.05138 8.1977,-14.41461 0.88098,-4.07461 1.63148,-3.64112 5.54822,3.20462 6.80896,11.90081 6.28802,21.49321 -1.62676,29.95475 -8.71725,9.31944 -17.69492,10.06606 -43.29382,3.60048 -18.501,-4.67284 -30.39671,-6.70064 -39.25706,-6.69192 -14.25826,0.014 -36.2857,7.13794 -75.09579,24.2868 -21.75949,9.61478 -81.09299,39.49031 -81.09299,40.83185 0,1.45441 4.9482,5.47999 15.2222,12.38389 14.3938,9.67234 28.03479,15.42442 36.57879,15.42442 6.95751,0 9.96639,-2.29862 17.40734,-13.2983 8.09927,-11.97282 21.10024,-25.98039 30.75974,-33.14126 8.55693,-6.34352 23.40044,-13.35624 33.37206,-15.76641 13.61384,-3.29051 31.13519,-2.25933 46.85917,2.75777 7.6353,2.43622 28.03286,12.08544 27.66028,13.08489 -0.20269,0.54375 -222.73309,173.86519 -245.32331,191.07408 l -3.62362,2.76042 z"
       id="path4641"
       inkscape:connector-curvature="0"
       transform="scale(0.26458333)" />
  </g>
</svg>
